<?xml version="1.0" encoding="UTF-8"?>
<svg width="752px" height="752px" viewBox="0 0 752 752" version="1.1" xmlns="http://www.w3.org/2000/svg" xmlns:xlink="http://www.w3.org/1999/xlink">
    <!-- Generator: Sketch 41 (35326) - http://www.bohemiancoding.com/sketch -->
    <title>add-user</title>
    <desc>Created with Sketch.</desc>
    <defs></defs>
    <g id="Page-1" stroke="none" stroke-width="1" fill="none" fill-rule="evenodd">
        <g id="add-user">
            <circle id="Oval-2" fill="#89DAC1" cx="376" cy="376" r="376"></circle>
            <circle id="Oval" fill="#000000" cx="345.28" cy="243.335" r="99.792"></circle>
            <path d="M411.18,493.258 C411.18,459.68 438.401,432.457 471.979,432.457 L513.094,432.457 C498.725,386.328 472.955,347.522 440.186,321.696 C417.61,349.006 383.479,366.412 345.28,366.412 C307.082,366.412 272.947,349.006 250.372,321.696 C199.028,362.16 164.821,434.459 164.821,516.931 C164.821,516.931 238.836,543.542 343.617,543.542 C367.806,543.542 390.529,542.122 411.18,539.94 L411.18,493.258 Z" id="Shape" fill="#000000"></path>
            <path d="M536.059,444.457 L476.299,444.457 C446.963,444.457 423.18,468.24 423.18,497.578 L423.18,557.338 C423.18,586.674 446.963,610.457 476.299,610.457 L536.059,610.457 C565.397,610.457 589.18,586.674 589.18,557.338 L589.18,497.578 C589.18,468.24 565.397,444.457 536.059,444.457 Z M549.86,544.5 L521.5,544.5 L521.5,571.957 C521.5,580.795 514.336,587.957 505.5,587.957 C496.664,587.957 489.5,580.795 489.5,571.957 L489.5,544.5 L461.86,544.5 C453.024,544.5 445.86,537.336 445.86,528.5 C445.86,519.664 453.024,512.5 461.86,512.5 L489.5,512.5 L489.5,483.957 C489.5,475.121 496.664,467.957 505.5,467.957 C514.336,467.957 521.5,475.121 521.5,483.957 L521.5,512.5 L549.859,512.5 C558.697,512.5 565.859,519.664 565.859,528.5 C565.859,537.336 558.698,544.5 549.86,544.5 Z" id="Shape" fill="#000000"></path>
        </g>
    </g>
</svg>