<?xml version="1.0" encoding="UTF-8"?>
<svg width="91px" height="90px" viewBox="0 0 91 90" version="1.1" xmlns="http://www.w3.org/2000/svg" xmlns:xlink="http://www.w3.org/1999/xlink">
    <!-- Generator: Sketch 41 (35326) - http://www.bohemiancoding.com/sketch -->
    <title>css-n</title>
    <desc>Created with Sketch.</desc>
    <defs></defs>
    <g id="Page-1" stroke="none" stroke-width="1" fill="none" fill-rule="evenodd">
        <g id="css-n" fill="#43AEF8">
            <g id="Group">
                <path d="M47,77.3 L90,64.8 L90,17 L0,17 L0,64.8 L43,77.3 C44,77.6 46,77.6 47,77.3 Z M63.6,47.5 L60.3,46.2 C57.7,45.2 55.3,43.3 55.3,39.9 C55.3,36.1 59,33 64.2,33 C67.1,33 70.1,34.1 72.2,36.1 L69.3,39.4 C67.7,38.2 66.1,37.6 64.1,37.6 C62.1,37.6 60.9,38.4 60.9,39.7 C60.9,41.1 62.5,41.6 64.7,42.4 L67.9,43.6 C70.9,44.7 72.8,46.6 72.8,49.9 C72.8,53.7 69.3,57.1 63.4,57.1 C60.1,57.1 56.7,56 54.2,53.8 L57.4,50.2 C59.2,51.6 61.5,52.6 63.6,52.6 C65.9,52.6 67.1,51.7 67.1,50.4 C67.2,48.8 65.8,48.3 63.6,47.5 Z M28,57 C22,57 17,52.9 17,45.1 C17,37.5 22.2,33 28.2,33 C31.2,33 33.7,34.4 35.3,36 L32.5,39.3 C31.3,38.2 30,37.5 28.3,37.5 C25.1,37.5 22.5,40.3 22.5,45 C22.5,49.8 24.8,52.5 28.2,52.5 C30.1,52.5 31.7,51.5 32.8,50.3 L35.6,53.6 C33.7,55.8 31.1,57 28,57 Z M44.9,47.5 L41.8,46.2 C39.4,45.2 37,43.3 37,39.9 C37,36.1 40.5,33 45.4,33 C48.1,33 51,34.1 53,36.1 L50.3,39.4 C48.7,38.2 47.3,37.6 45.4,37.6 C43.5,37.6 42.4,38.4 42.4,39.7 C42.4,41.1 44,41.6 46,42.4 L49.1,43.6 C52,44.7 53.8,46.6 53.8,49.9 C53.8,53.7 50.5,57.1 44.8,57.1 C41.7,57.1 38.4,56 36,53.8 L39.1,50.2 C40.8,51.6 43,52.6 45,52.6 C47.2,52.6 48.3,51.7 48.3,50.4 C48.4,48.8 47,48.3 44.9,47.5 Z" id="Shape"></path>
                <path d="M90,13 L90,2.4 C90,1.1 88.9,0 87.6,0 L47.4,0 L42.5,0 L2.4,0 C1.1,0 0,1.1 0,2.4 L0,13 L90,13 Z" id="Shape"></path>
                <path d="M48.1,81.2 C47.2,81.5 46.1,81.6 45,81.6 C43.9,81.6 42.8,81.5 41.9,81.2 L0,69 L0,75.6 C0,76.9 1.1,78.3 2.4,78.7 L42.7,89.4 C44,89.7 46.1,89.7 47.4,89.4 L87.7,78.7 C89,78.4 90.1,77 90.1,75.6 L90.1,69 L48.1,81.2 Z" id="Shape"></path>
            </g>
        </g>
    </g>
</svg>