<?xml version="1.0" encoding="UTF-8"?>
<svg width="364px" height="509px" viewBox="0 0 364 509" version="1.1" xmlns="http://www.w3.org/2000/svg" xmlns:xlink="http://www.w3.org/1999/xlink">
    <!-- Generator: Sketch 41 (35326) - http://www.bohemiancoding.com/sketch -->
    <title>css</title>
    <desc>Created with Sketch.</desc>
    <defs></defs>
    <g id="Page-1" stroke="none" stroke-width="1" fill="none" fill-rule="evenodd">
        <g id="css" fill="#011627">
            <g id="Group">
                <path d="M0.744,98.496 L33.749,467.957 L181.909,509 L330.199,467.978 L363.256,98.496 L0.744,98.496 L0.744,98.496 Z M291.648,219.315 L287.517,265.718 L275.064,404.872 L181.989,430.605 L181.927,430.626 L88.913,404.872 L82.422,332.089 L127.993,332.089 L131.37,369.844 L181.938,383.49 L181.987,383.473 L232.615,369.821 L239.519,306.939 L80.243,307.353 L75.743,264.353 L243.356,262.398 L246.743,216.353 L71.243,216.853 L68.279,174.026 L181.988,174.026 L295.706,174.026 L291.648,219.315 Z" id="Shape"></path>
                <polygon id="Shape" points="0.744 98.496 0.744 98.496 0.744 98.495"></polygon>
                <polygon id="Shape" points="128.313 60.114 99.229 60.114 99.3 16.488 128.313 16.488 128.313 0.205 82.945 0.205 82.945 16.488 83.017 16.488 82.946 60.114 82.945 60.114 82.945 76.397 128.313 76.397"></polygon>
                <polygon id="Shape" points="204.717 59.958 168.629 16.394 202.369 16.394 202.369 0.205 144.274 0.205 144.274 15.666 180.523 59.229 141.927 59.229 141.927 75.418 204.717 75.418"></polygon>
                <polygon id="Shape" points="280.055 59.958 243.967 16.394 277.707 16.394 277.707 0.205 219.613 0.205 219.613 15.666 255.861 59.229 217.266 59.229 217.266 75.418 280.055 75.418"></polygon>
            </g>
        </g>
    </g>
</svg>