<?xml version="1.0" encoding="UTF-8"?>
<svg width="506px" height="393px" viewBox="0 0 506 393" version="1.1" xmlns="http://www.w3.org/2000/svg" xmlns:xlink="http://www.w3.org/1999/xlink">
    <!-- Generator: Sketch 44.1 (41455) - http://www.bohemiancoding.com/sketch -->
    <title>038-diamond</title>
    <desc>Created with Sketch.</desc>
    <defs></defs>
    <g id="Page-1" stroke="none" stroke-width="1" fill="none" fill-rule="evenodd">
        <g id="038-diamond" fill-rule="nonzero" fill="#FFFFFF">
            <path d="M503.135,102.963 L415.938,4.296 C414.04,2.148 411.311,0.918 408.445,0.918 L97.556,0.918 C94.69,0.918 91.961,2.148 90.063,4.296 L2.865,102.963 C0.261,105.91 -0.374,110.109 1.242,113.695 C1.851,115.047 2.739,116.215 3.819,117.148 C3.84,117.171 3.856,117.197 3.877,117.221 L245.519,389.636 C247.417,391.776 250.14,393 253,393 C255.86,393 258.583,391.775 260.481,389.636 L502.123,117.221 C502.144,117.198 502.161,117.172 502.181,117.148 C503.26,116.215 504.148,115.046 504.758,113.695 C506.374,110.109 505.739,105.91 503.135,102.963 Z M390.713,20.917 L346.272,92.561 L275.052,20.917 L390.713,20.917 Z M325.054,99.585 L180.946,99.585 L253,27.102 L325.054,99.585 Z M230.948,20.918 L159.728,92.562 L115.287,20.918 L230.948,20.918 Z M96.004,27.774 L140.549,99.585 L32.541,99.585 L96.004,27.774 Z M32.709,119.585 L150.887,119.585 L232.523,344.846 L32.709,119.585 Z M273.848,344.428 L330.886,190.056 C332.8,184.875 330.152,179.124 324.972,177.21 C319.789,175.294 314.039,177.943 312.126,183.124 L253.091,342.901 L172.16,119.585 L473.291,119.585 L273.848,344.428 Z M365.451,99.585 L409.996,27.774 L473.459,99.585 L365.451,99.585 Z" id="Shape"></path>
            <circle id="Oval" cx="334.43" cy="149.36" r="10"></circle>
        </g>
    </g>
</svg>