<?xml version="1.0" encoding="UTF-8"?>
<svg width="91px" height="90px" viewBox="0 0 91 90" version="1.1" xmlns="http://www.w3.org/2000/svg" xmlns:xlink="http://www.w3.org/1999/xlink">
    <!-- Generator: Sketch 41 (35326) - http://www.bohemiancoding.com/sketch -->
    <title>git-n</title>
    <desc>Created with Sketch.</desc>
    <defs></defs>
    <g id="Page-1" stroke="none" stroke-width="1" fill="none" fill-rule="evenodd">
        <g id="git-n" fill="#323131">
            <g id="Group">
                <path d="M90,13 L90,2.4 C90,1.1 88.9,0 87.6,0 L47.4,0 L42.5,0 L2.4,0 C1.1,0 0,1.1 0,2.4 L0,13 L90,13 Z" id="Shape"></path>
                <path d="M47,77.3 L90,64.8 L90,17 L0,17 L0,64.8 L43,77.3 C44,77.6 46,77.6 47,77.3 Z M50,53 L46,53 L46,39 L50,39 L50,53 Z M52,39.3 L54,39.4 L54.3,36 L58,36 L58,39 L61,39 L61,42 L58,42 L58,47.7 C58,49.2 58.6,49.9 59.7,49.9 C60.1,49.9 60.6,49.8 61,49.6 L61.6,52.5 C60.8,52.7 60,53 58.6,53 C55.1,53 54,50.9 54,47.8 L54,42 L52,42 L52,39.3 Z M48.2,33 C49.6,33 50.6,33.8 50.6,35.1 C50.6,36.3 49.6,37.2 48.2,37.2 C46.8,37.2 45.8,36.3 45.8,35.1 C45.8,33.8 46.8,33 48.2,33 Z M28.5,43.9 C28.5,38 32.5,34.6 37.4,34.6 C40,34.6 42,35.7 43.2,36.9 L41,39.5 C40.1,38.7 39.1,38.1 37.5,38.1 C34.7,38.1 32.7,40.3 32.7,43.8 C32.7,47.5 34.5,49.6 37.9,49.6 C38.7,49.6 38.9,49.4 39.9,49.1 L39.9,46.1 L36.9,46.1 L36.9,43.1 L43.9,43.1 L43.9,50.9 C42,52 40.3,53 37.7,53 C32.7,53 28.5,49.9 28.5,43.9 Z" id="Shape"></path>
                <path d="M48.1,81.2 C47.2,81.5 46.1,81.6 45,81.6 C43.9,81.6 42.8,81.5 41.9,81.2 L0,69 L0,75.6 C0,76.9 1.1,78.3 2.4,78.7 L42.7,89.4 C44,89.7 46.1,89.7 47.4,89.4 L87.7,78.7 C89,78.4 90.1,77 90.1,75.6 L90.1,69 L48.1,81.2 Z" id="Shape"></path>
            </g>
        </g>
    </g>
</svg>