<?xml version="1.0" encoding="UTF-8"?>
<svg width="61px" height="85px" viewBox="0 0 61 85" version="1.1" xmlns="http://www.w3.org/2000/svg" xmlns:xlink="http://www.w3.org/1999/xlink">
    <!-- Generator: Sketch 41 (35326) - http://www.bohemiancoding.com/sketch -->
    <title>html</title>
    <desc>Created with Sketch.</desc>
    <defs></defs>
    <g id="Page-1" stroke="none" stroke-width="1" fill="none" fill-rule="evenodd">
        <g id="html" fill="#011627">
            <g id="Group">
                <polygon id="Shape" points="9.72342824 8.25428 13.2278924 8.25428 13.2278924 12.07096 17.0610081 12.07096 17.0610081 0.67252 13.2278924 0.67252 13.2278924 4.43932 9.72342824 4.43932 9.72342824 0.67252 5.89204225 0.67252 5.89204225 12.07096 9.72342824 12.07096"></polygon>
                <polygon id="Shape" points="22.0980266 12.07096 25.9294126 12.07096 25.9294126 4.4548 29.3006863 4.4548 29.3006863 0.67252 18.7267529 0.67252 18.7267529 4.4548 22.0980266 4.4548"></polygon>
                <polygon id="Shape" points="34.7286273 6.4242 37.3682188 10.4748 37.4322193 10.4748 40.0666215 6.4242 40.0666215 12.07096 43.8841696 12.07096 43.8841696 0.67252 39.8884578 0.67252 37.4322193 4.68356 34.9759809 0.67252 30.9819988 0.67252 30.9819988 12.07096 34.7286273 12.07096"></polygon>
                <polygon id="Shape" points="55.0098918 8.30588 49.621735 8.30588 49.621735 0.67252 45.790349 0.67252 45.790349 12.07096 55.0098918 12.07096"></polygon>
                <path d="M0.370695023,17.07272 L5.85052836,78.18776 L30.4492373,84.9766 L55.0669734,78.1912 L60.5571852,17.07272 L0.370695023,17.07272 L0.370695023,17.07272 Z M48.6686453,37.05912 L30.4630752,37.05912 L19.8216817,37.05912 L20.5101204,44.73548 L30.4630752,44.73548 L47.9836661,44.73548 L45.9166204,67.75424 L30.4630752,72.01124 L30.4526968,72.01468 L15.0095301,67.75424 L13.9318987,55.71424 L21.497805,55.71424 L22.0582425,61.95956 L30.4544265,64.2162 L30.464805,64.21276 L30.464805,64.21276 L38.8696377,61.95612 L39.7448889,52.23468 L30.464805,52.23468 L30.464805,52.23468 L13.6188148,52.23468 L11.5829045,29.5668 L30.4630752,29.5668 L49.3415162,29.5668 L48.6686453,37.05912 Z" id="Shape"></path>
            </g>
        </g>
    </g>
</svg>