<?xml version="1.0" encoding="UTF-8"?>
<svg width="100px" height="91px" viewBox="0 0 100 91" version="1.1" xmlns="http://www.w3.org/2000/svg" xmlns:xlink="http://www.w3.org/1999/xlink">
    <!-- Generator: Sketch 41 (35326) - http://www.bohemiancoding.com/sketch -->
    <title>icon</title>
    <desc>Created with Sketch.</desc>
    <defs></defs>
    <g id="Page-1" stroke="none" stroke-width="1" fill="none" fill-rule="evenodd">
        <g id="icon" fill="#FDFFFC">
            <path d="M98.005,32.192 L2.005,32.192 C1.227,32.192 0.52,31.741 0.192,31.035 C-0.136,30.329 -0.025,29.497 0.476,28.903 L23.5,1.595 C23.88,1.144 24.439,0.884 25.029,0.884 L74.986,0.884 C75.576,0.884 76.135,1.144 76.515,1.595 L99.534,28.903 C100.035,29.498 100.146,30.33 99.818,31.035 C99.49,31.74 98.783,32.192 98.005,32.192 Z M6.308,28.192 L93.704,28.192 L74.057,4.884 L25.959,4.884 L6.308,28.192 Z" id="Shape"></path>
            <polygon id="Shape" points="50.005 90.299 0.475 31.48 3.535 28.904 50.005 84.088 96.475 28.904 99.535 31.48"></polygon>
            <path d="M50.005,89.193 L50.005,89.193 C49.156,89.193 48.401,88.658 48.119,87.858 L28.023,30.857 C27.802,30.232 27.906,29.54 28.298,29.006 L48.394,1.698 C49.146,0.674 50.861,0.674 51.615,1.698 L71.715,29.006 C72.108,29.539 72.211,30.232 71.99,30.857 L51.89,87.858 C51.609,88.658 50.854,89.193 50.005,89.193 Z M32.147,30.525 L50.004,81.179 L67.865,30.525 L50.005,6.258 L32.147,30.525 Z" id="Shape"></path>
            <rect id="Rectangle-path" transform="translate(27.468890, 16.537118) rotate(79.868882) translate(-27.468890, -16.537118) " x="13.5989997" y="14.5371336" width="27.7397804" height="3.99996834"></rect>
            <rect id="Rectangle-path" transform="translate(72.547122, 16.536619) rotate(10.136758) translate(-72.547122, -16.536619) " x="70.5471026" y="2.66598513" width="4.00003872" height="27.7412685"></rect>
        </g>
    </g>
</svg>