<?xml version="1.0" encoding="UTF-8"?>
<svg width="435px" height="251px" viewBox="0 0 435 251" version="1.1" xmlns="http://www.w3.org/2000/svg" xmlns:xlink="http://www.w3.org/1999/xlink">
    <!-- Generator: Sketch 41 (35326) - http://www.bohemiancoding.com/sketch -->
    <title>icon</title>
    <desc>Created with Sketch.</desc>
    <defs></defs>
    <g id="Page-1" stroke="none" stroke-width="1" fill="none" fill-rule="evenodd">
        <g id="Artboard" transform="translate(-39.000000, -131.000000)" fill="#FFFFFF">
            <g id="icon" transform="translate(39.000000, 131.000000)">
                <circle id="Oval" cx="53" cy="99" r="53"></circle>
                <path d="M161.91704,250.105469 C201.635725,250.105469 233.83408,223.635725 233.83408,183.91704 C233.83408,144.198356 201.635725,112 161.91704,112 C122.198356,112 90,144.198356 90,183.91704 C90,223.635725 122.198356,250.105469 161.91704,250.105469 Z" id="Oval-2"></path>
                <path d="M335.675781,198 C390.351971,198 434.675781,153.67619 434.675781,99 C434.675781,44.3238098 390.351971,0 335.675781,0 C280.999591,0 243,44.3238098 243,99 C243,153.67619 280.999591,198 335.675781,198 Z" id="Oval-2-Copy"></path>
            </g>
        </g>
    </g>
</svg>