<?xml version="1.0" encoding="UTF-8"?>
<svg width="91px" height="90px" viewBox="0 0 91 90" version="1.1" xmlns="http://www.w3.org/2000/svg" xmlns:xlink="http://www.w3.org/1999/xlink">
    <!-- Generator: Sketch 41 (35326) - http://www.bohemiancoding.com/sketch -->
    <title>ios-n</title>
    <desc>Created with Sketch.</desc>
    <defs></defs>
    <g id="Page-1" stroke="none" stroke-width="1" fill="none" fill-rule="evenodd">
        <g id="ios-n" fill="#666666">
            <g id="Group">
                <path d="M47,77.3 L90,64.8 L90,17 L0,17 L0,64.8 L43,77.3 C44,77.6 46,77.6 47,77.3 Z M58.6,33 C61,33 63.6,34.1 65.4,36.1 L63,39.4 C61.6,38.2 60.3,37.6 58.6,37.6 C57,37.6 55.9,38.4 55.9,39.7 C55.9,41.1 57.3,41.6 59.1,42.4 L61.8,43.6 C64.3,44.7 66,46.6 66,49.9 C66,53.7 63.1,57.1 58.1,57.1 C55.4,57.1 52.5,56 50.3,53.8 L53,50.2 C54.5,51.6 56.5,52.6 58.2,52.6 C60.2,52.6 61.1,51.7 61.1,50.4 C61.1,48.9 59.9,48.5 58.1,47.6 L55.4,46.3 C53.2,45.3 51.2,43.4 51.2,40 C51.1,36.1 54.2,33 58.6,33 Z M29,57 L25,57 L25,42 L29,42 L29,57 Z M27.2,40.4 C26.1,40.4 25.4,39.6 25.4,38.5 C25.4,37.4 26.2,36.7 27.2,36.7 C28.3,36.7 29,37.4 29,38.5 C29.1,39.6 28.3,40.4 27.2,40.4 Z M31.1,44.9 C31.1,37.3 35,33 40.8,33 C46.6,33 50.5,37.4 50.5,44.9 C50.5,52.5 46.6,57 40.8,57 C35,57 31.1,52.5 31.1,44.9 Z" id="Shape"></path>
                <path d="M40.8,37.5 C37.9,37.5 36.1,40.3 36.1,44.9 C36.1,49.6 37.9,52.5 40.8,52.5 C43.7,52.5 45.5,49.6 45.5,44.9 C45.5,40.3 43.7,37.5 40.8,37.5 Z" id="Shape"></path>
                <path d="M90,13 L90,2.4 C90,1.1 88.9,0 87.6,0 L47.4,0 L42.5,0 L2.4,0 C1.1,0 0,1.1 0,2.4 L0,13 L90,13 Z" id="Shape"></path>
                <path d="M48.1,81.2 C47.2,81.5 46.1,81.6 45,81.6 C43.9,81.6 42.8,81.5 41.9,81.2 L0,69 L0,75.6 C0,76.9 1.1,78.3 2.4,78.7 L42.7,89.4 C44,89.7 46.1,89.7 47.4,89.4 L87.7,78.7 C89,78.4 90.1,77 90.1,75.6 L90.1,69 L48.1,81.2 Z" id="Shape"></path>
            </g>
        </g>
    </g>
</svg>