<?xml version="1.0" encoding="UTF-8"?>
<svg width="512px" height="512px" viewBox="0 0 512 512" version="1.1" xmlns="http://www.w3.org/2000/svg" xmlns:xlink="http://www.w3.org/1999/xlink">
    <!-- Generator: Sketch 41 (35326) - http://www.bohemiancoding.com/sketch -->
    <title>ios</title>
    <desc>Created with Sketch.</desc>
    <defs></defs>
    <g id="Page-1" stroke="none" stroke-width="1" fill="none" fill-rule="evenodd">
        <g id="ios" transform="translate(-1.000000, -1.000000)">
            <g id="g10133" transform="translate(0.227400, 0.664000)">
                <path d="M512.772617,256.336008 C512.772617,397.720908 398.157514,512.336012 256.772583,512.336012 C115.387735,512.336012 0.772624585,397.720908 0.772624585,256.336008 C0.772624585,114.951109 115.387735,0.336005489 256.772583,0.336005489 C398.157514,0.336005489 512.772617,114.951109 512.772617,256.336008 L512.772617,256.336008 Z" id="path4884-0" fill="#011627"></path>
                <g id="g10088" transform="translate(83.903901, 163.454064)" fill="#FFFFFF">
                    <path d="M136.471202,0.321421447 C122.736333,0.501695431 110.911422,3.19389204 99.2936489,8.98163881 C69.627045,23.7608936 52.493308,54.8835297 52.493308,94.0967126 C52.493308,133.401171 69.3468524,163.598553 99.1186892,177.724687 C107.161233,181.540866 115.222581,183.617608 127.46124,185.072764 C133.655961,185.323524 139.447679,185.761216 145.481455,185.072764 C157.720114,183.617608 165.781462,181.540866 173.824006,177.724687 C203.595843,163.598553 220.449095,133.401171 220.449095,94.0967126 C220.449095,54.8835297 203.31565,23.7608936 173.649046,8.98163881 C162.031273,3.19389204 150.206362,0.501695431 136.471202,0.321421447 L136.471202,0.321421447 Z M148.280754,27.9641331 C166.093832,32.7121656 179.019424,48.7840555 183.971323,72.2274403 C187.449671,88.6918218 186.501583,107.717355 181.522003,122.701645 C173.767477,146.037694 156.931569,159.216207 136.471202,159.004632 C116.011126,159.216207 99.1752182,146.037694 91.4206922,122.701645 C86.4411125,107.717355 85.4929659,88.6918218 88.971372,72.2274403 C93.9232712,48.7840555 106.848863,32.7121656 124.661942,27.9641331 C132.73894,26.2522602 140.786799,26.560659 148.280754,27.9641331 Z" id="path10079"></path>
                    <path d="M18.1763128,0.321421447 C8.34130702,0.321421447 0.368490068,8.2942968 0.368490068,18.1292441 C0.368490068,27.9642499 8.34130702,35.9370668 18.1763128,35.9370668 C28.0113185,35.9370668 35.9841355,27.9642499 35.9841355,18.1292441 C35.9841355,8.2942968 28.0113185,0.321421447 18.1763128,0.321421447 Z M1.53621232,54.6571798 L1.53621232,185.442422 L34.8164132,185.442422 L34.8164132,54.6571798 L1.53621232,54.6571798 Z" id="path10077"></path>
                    <path d="M268.836513,185.16877 C254.578283,182.727334 240.864204,180.835245 229.223889,174.228177 C229.068493,174.09176 236.095966,147.834419 236.413241,147.366069 C255.122551,153.718464 281.460772,162.630142 299.218782,154.466773 C308.90061,149.623144 313.669607,140.670178 312.067581,130.344981 C310.26525,118.729076 302.221246,112.03558 280.145771,103.782804 C255.524503,94.5782608 241.084305,83.2630463 235.183092,68.5505401 C232.281481,61.3163968 231.319202,52.1061891 232.624451,44.0612509 C236.254633,21.6869544 253.685206,6.12084777 280.435774,1.36405563 C288.185862,-0.0140738679 304.759039,-0.0284397247 312.913531,1.33602469 C324.66562,3.30227834 338.141845,7.7468175 338.141845,9.65642529 C338.141845,10.3615786 331.255577,34.6391759 330.902971,35.177078 C319.283504,30.5751568 306.252679,27.2857843 295.224723,27.2225979 C279.618264,27.0048326 262.697036,36.2670144 265.680171,52.6250535 C267.792769,62.8767275 274.335541,67.8818854 298.414527,77.6664355 C316.149061,84.8728982 324.658904,89.843543 331.954307,97.2571427 C342.089886,107.37929 345.293939,119.254598 345.368396,131.024673 C345.395259,140.829546 344.481158,145.403553 340.982839,152.972374 C332.484442,171.358977 315.157583,182.045072 289.135177,184.949019 C284.258903,185.493111 272.772875,185.617499 268.836513,185.168828 L268.836513,185.16877 Z" id="path10039"></path>
                </g>
            </g>
        </g>
    </g>
</svg>