<?xml version="1.0" encoding="UTF-8"?>
<svg width="100px" height="100px" viewBox="0 0 100 100" version="1.1" xmlns="http://www.w3.org/2000/svg" xmlns:xlink="http://www.w3.org/1999/xlink">
    <!-- Generator: Sketch 41 (35326) - http://www.bohemiancoding.com/sketch -->
    <title>javascript</title>
    <desc>Created with Sketch.</desc>
    <defs></defs>
    <g id="Page-1" stroke="none" stroke-width="1" fill="none" fill-rule="evenodd">
        <g id="javascript">
            <g id="Group">
                <circle id="Oval" fill="#011627" cx="50" cy="50" r="50"></circle>
                <g id="Layer_1_1_" transform="translate(23.000000, 30.000000)" fill="#FFFFFF">
                    <g id="Group">
                        <path d="M11.4,0.6 L20.1,0.6 L20.1,25.1 C20.1,36.1 14.8,40 6.4,40 C4.3,40 1.7,39.7 -7.10542736e-15,39.1 L1,32 C2.2,32.4 3.8,32.7 5.5,32.7 C9.2,32.7 11.5,31 11.5,25.1 L11.4,0.6 L11.4,0.6 Z" id="Shape"></path>
                        <path d="M27.8,30.4 C30.1,31.6 33.8,32.8 37.5,32.8 C41.5,32.8 43.6,31.1 43.6,28.5 C43.6,26.1 41.8,24.7 37.1,23.1 C30.7,20.8 26.4,17.2 26.4,11.5 C26.4,5 32,0 41.1,0 C45.5,0 48.7,0.9 51,2 L49,9 C47.5,8.3 44.7,7.2 41,7.2 C37.2,7.2 35.4,9 35.4,10.9 C35.4,13.4 37.5,14.5 42.6,16.4 C49.4,18.9 52.6,22.5 52.6,28 C52.6,34.5 47.7,40 37,40 C32.6,40 28.2,38.8 26,37.6 L27.8,30.4 Z" id="Shape"></path>
                    </g>
                </g>
            </g>
        </g>
    </g>
</svg>