<?xml version="1.0" encoding="UTF-8"?>
<svg width="91px" height="90px" viewBox="0 0 91 90" version="1.1" xmlns="http://www.w3.org/2000/svg" xmlns:xlink="http://www.w3.org/1999/xlink">
    <!-- Generator: Sketch 41 (35326) - http://www.bohemiancoding.com/sketch -->
    <title>js-n</title>
    <desc>Created with Sketch.</desc>
    <defs></defs>
    <g id="Page-1" stroke="none" stroke-width="1" fill="none" fill-rule="evenodd">
        <g id="js-n" fill="#F0DB4F">
            <g id="Group">
                <path d="M90,13 L90,2.4 C90,1.1 88.9,0 87.6,0 L47.4,0 L42.5,0 L2.4,0 C1.1,0 0,1.1 0,2.4 L0,13 L90,13 Z" id="Shape"></path>
                <path d="M47,77.3 L90,64.8 L90,17 L0,17 L0,64.8 L43,77.3 C44,77.6 46,77.6 47,77.3 Z M54.2,47.5 L51,46.2 C48.5,45.2 46,43.3 46,39.9 C46,36.1 49.6,33 54.8,33 C57.6,33 60.7,34.1 62.8,36.1 L60,39.4 C58.4,38.2 56.8,37.6 54.9,37.6 C53,37.6 51.7,38.4 51.7,39.7 C51.7,41.1 53.3,41.6 55.5,42.4 L58.7,43.6 C61.7,44.7 63.6,46.6 63.6,49.9 C63.6,53.7 60.2,57.1 54.3,57.1 C51.1,57.1 47.6,56 45.1,53.8 L48.3,50.2 C50.1,51.6 52.4,52.6 54.4,52.6 C56.7,52.6 57.9,51.7 57.9,50.4 C57.8,48.8 56.4,48.3 54.2,47.5 Z M42,48.7 C42,53.3 39.7,57 34.3,57 C30.6,57 28.2,55.6 26.5,52.7 L30.3,50 C31.2,51.6 32.6,52.3 33.9,52.3 C35.9,52.3 37.1,51.3 37.1,48.2 L37.1,33 L42.1,33 L42.1,48.7 L42,48.7 Z" id="Shape"></path>
                <path d="M48.1,81.2 C47.2,81.5 46.1,81.6 45,81.6 C43.9,81.6 42.8,81.5 41.9,81.2 L0,69 L0,75.6 C0,76.9 1.1,78.3 2.4,78.7 L42.7,89.4 C44,89.7 46.1,89.7 47.4,89.4 L87.7,78.7 C89,78.4 90.1,77 90.1,75.6 L90.1,69 L48.1,81.2 Z" id="Shape"></path>
            </g>
        </g>
    </g>
</svg>