<?xml version="1.0" encoding="UTF-8"?>
<svg width="90px" height="80px" viewBox="0 0 90 80" version="1.1" xmlns="http://www.w3.org/2000/svg" xmlns:xlink="http://www.w3.org/1999/xlink">
    <!-- Generator: Sketch 44.1 (41455) - http://www.bohemiancoding.com/sketch -->
    <title>react-js-react-logo-js-icon</title>
    <desc>Created with Sketch.</desc>
    <defs>
        <linearGradient x1="50%" y1="0%" x2="50%" y2="100%" id="linearGradient-1">
            <stop stop-color="#78D7FD" offset="0%"></stop>
            <stop stop-color="#43AEF8" offset="100%"></stop>
        </linearGradient>
    </defs>
    <g id="Page-1" stroke="none" stroke-width="1" fill="none" fill-rule="evenodd">
        <g id="react-js-react-logo-js-icon" fill-rule="nonzero" fill="url(#linearGradient-1)">
            <circle id="Oval" cx="45" cy="39.9005329" r="8.02486679"></circle>
            <path d="M45,58.2841918 C33.7300178,58.2841918 23.8827709,56.9573712 16.5133215,54.4316163 C11.7335702,52.8010657 7.6731794,50.6269982 4.77975133,48.1492007 C1.71047957,45.5275311 0.079928952,42.6660746 0.079928952,39.9005329 C0.079928952,34.5932504 5.89875666,29.3978686 15.6660746,26.008881 C23.6589698,23.2273535 34.0817052,21.6767318 44.9840142,21.6767318 C55.6944938,21.6767318 65.973357,23.1793961 73.9182948,25.928952 C78.5701599,27.5275311 82.4866785,29.6056838 85.268206,31.9076377 C88.2895204,34.4333925 89.8880995,37.1989343 89.8880995,39.9005329 C89.8880995,45.4156306 83.3818828,50.9946714 72.8952043,54.4635879 C65.4777975,56.9253996 55.5666075,58.2841918 45,58.2841918 Z M45,25.5133215 C34.6571936,25.5133215 24.4262877,27.0159858 16.9449378,29.6216696 C7.96092362,32.7548845 3.93250444,37.0390764 3.93250444,39.9005329 C3.93250444,42.8738899 8.26465364,47.5577265 17.7602131,50.8028419 C24.7300178,53.1847247 34.1616341,54.4476021 45,54.4476021 C55.1669627,54.4476021 64.6465364,53.1687389 71.69627,50.8188277 C81.5595027,47.5417407 86.0674956,42.8579041 86.0674956,39.9005329 C86.0674956,38.3818828 84.9165187,36.5914742 82.8223801,34.8490231 C80.4085258,32.8348135 76.8916519,30.9964476 72.687389,29.5417407 C65.1261101,26.9520426 55.294849,25.5133215 45,25.5133215 Z" id="Shape"></path>
            <path d="M26.7921847,79.8969805 C25.1616341,79.8969805 23.722913,79.5452931 22.5079929,78.8419183 C17.920071,76.1882771 16.321492,68.5470693 18.2557726,58.3960924 C19.8383659,50.0674956 23.7069272,40.2841918 29.1580817,30.8365897 C34.5133215,21.5648313 40.9396092,13.4120782 47.285968,7.89698046 C50.9946714,4.6678508 54.7513321,2.30195382 58.1403197,1.05506217 C61.8330373,-0.303730018 65.0301954,-0.303730018 67.3641208,1.03907638 C72.1438721,3.78863233 73.7264654,12.2291297 71.4884547,23.035524 C69.9058615,30.7087034 66.1332149,39.964476 60.8579041,49.1243339 C55.2309059,58.8756661 49.1563055,66.740675 43.2895204,71.8721137 C39.4849023,75.1971581 35.5683837,77.6269982 31.9875666,78.8898757 C30.1172291,79.5612789 28.3587922,79.8969805 26.7921847,79.8969805 Z M30.8046181,31.7957371 L32.4671403,32.7548845 C27.30373,41.7069272 23.4831261,51.3143872 22.0124334,59.1154529 C20.2380107,68.4671403 21.9484902,74.0941385 24.410302,75.5168739 C25.017762,75.8685613 25.8170515,76.0603908 26.7921847,76.0603908 C29.973357,76.0603908 34.9769094,74.0461812 40.7637655,68.9946714 C46.3108348,64.1509769 52.1136767,56.6056838 57.5328597,47.2220249 C62.616341,38.4138544 66.2291297,29.5577265 67.731794,22.2841918 C69.8259325,12.1012433 68.0195382,5.86678508 65.4458259,4.38010657 C64.1349911,3.62877442 62.008881,3.72468917 59.4511545,4.6678508 C56.4937833,5.75488455 53.1527531,7.88099467 49.7957371,10.8063943 C43.7690941,16.0497336 37.6145648,23.8507993 32.4671403,32.7708703 L30.8046181,31.7957371 Z" id="Shape"></path>
            <path d="M63.2078153,79.9449378 C58.8596803,79.9449378 53.3445826,77.3232682 47.589698,72.3676732 C41.1634103,66.8365897 34.625222,58.6039076 29.1580817,49.1563055 L29.1580817,49.1563055 C23.7868561,39.8845471 19.9502664,30.2451155 18.3357016,21.9804618 C17.39254,17.1527531 17.2166963,12.7246892 17.8241563,9.1598579 C18.4955595,5.27531083 20.0781528,2.50976909 22.4280639,1.15097691 C27.1918295,-1.61456483 35.2966252,1.23090586 43.5452931,8.56838366 C49.3960924,13.7637655 55.5346359,21.660746 60.8259325,30.8046181 C66.4689165,40.5559503 70.2575488,49.7477798 71.7602131,57.3889876 C72.7353464,62.3445826 72.8952043,66.9484902 72.2078153,70.6891652 C71.4724689,74.669627 69.8099467,77.4991119 67.4120782,78.8898757 C66.2131439,79.5932504 64.7904085,79.9449378 63.2078153,79.9449378 Z M32.4831261,47.2380107 C37.6625222,56.1900533 44.0888099,64.294849 50.0994671,69.4582593 C57.3090586,75.660746 63.0319716,77.0035524 65.5097691,75.5648313 C68.0834813,74.0781528 69.9698046,67.9875666 68.0195382,58.1403197 C66.5808171,50.9147425 62.9520426,42.1225577 57.5168739,32.7388988 C52.4174067,23.9307282 46.5506217,16.3694494 41.0035524,11.4458259 C33.2344583,4.53996448 26.9360568,2.98934281 24.3623446,4.47602131 C23.0515098,5.22735346 22.0763766,7.12966252 21.6127886,9.81527531 C21.0852575,12.9165187 21.2451155,16.8809947 22.1083481,21.2451155 C23.642984,29.0941385 27.3197158,38.3179396 32.4831261,47.2380107 L32.4831261,47.2380107 Z" id="Shape"></path>
        </g>
    </g>
</svg>