<?xml version="1.0" encoding="UTF-8"?>
<svg width="91px" height="90px" viewBox="0 0 91 90" version="1.1" xmlns="http://www.w3.org/2000/svg" xmlns:xlink="http://www.w3.org/1999/xlink">
    <!-- Generator: Sketch 41 (35326) - http://www.bohemiancoding.com/sketch -->
    <title>ruby-n</title>
    <desc>Created with Sketch.</desc>
    <defs></defs>
    <g id="Page-1" stroke="none" stroke-width="1" fill="none" fill-rule="evenodd">
        <g id="ruby-n" fill="#EC1622">
            <g id="Group">
                <path d="M52.5,45.2 C52.5,42.8 51.7,41.6 50.2,41.6 C49.4,41.6 48.9,42 47.9,42.8 L47.9,48.3 C48.9,49 49.4,49.2 50,49.2 C51.4,49.1 52.5,47.9 52.5,45.2 Z" id="Shape"></path>
                <path d="M47,77.3 L90,64.8 L90,17 L0,17 L0,64.8 L43,77.3 C44,77.6 46,77.6 47,77.3 Z M60.9,39 L62.7,44.5 C63.1,45.7 63.4,47 63.7,48 L63.8,48 C64.1,47 64.4,45.7 64.7,44.5 L66.3,39 L70,39 L65.5,52.2 C64.3,55.5 62.9,57.1 59.9,57.1 C59.1,57.1 58.6,56.9 58.1,56.8 L58.8,53.8 C59,53.9 59.4,53.9 59.7,53.9 C61,53.9 61.6,53.2 62,52.2 L62.2,51.7 L57.2,39 L60.9,39 Z M44,33 L48,33 L48,37.7 L48,39.8 C49,38.9 50.2,38.3 51.4,38.3 C54.5,38.3 56.4,41 56.4,45.1 C56.4,49.7 53.8,52.6 51.1,52.6 C50,52.6 48.8,52 47.8,51 L47.7,51 L47.4,52 L44,52 L44,33 Z M28.6,42 C28.1,41.9 27.7,41.8 27.1,41.8 C26.1,41.8 25.1,42.5 24.1,44.3 L24.1,52 L20.1,52 L20.1,39 L23.4,39 L23.7,41 L23.8,41 C24.8,40 26.3,38.3 27.7,38.3 C28.5,38.3 28.9,38.4 29.3,38.6 L28.6,42 Z M42,52 L38.7,52 L38.4,50 L38.3,50 C37.2,51 36,52.1 34.1,52.1 C31.2,52.1 30,49.9 30,46.5 L30,38 L34,38 L34,46 C34,47.9 34.5,48.6 35.6,48.6 C36.6,48.6 37,48.2 38,47.1 L38,38.1 L42,38.1 L42,52 Z" id="Shape"></path>
                <path d="M48.1,81.2 C47.2,81.5 46.1,81.6 45,81.6 C43.9,81.6 42.8,81.5 41.9,81.2 L0,69 L0,75.6 C0,76.9 1.1,78.3 2.4,78.7 L42.7,89.4 C44,89.7 46.1,89.7 47.4,89.4 L87.7,78.7 C89,78.4 90.1,77 90.1,75.6 L90.1,69 L48.1,81.2 Z" id="Shape"></path>
                <path d="M90,13 L90,2.4 C90,1.1 88.9,0 87.6,0 L47.4,0 L42.5,0 L2.4,0 C1.1,0 0,1.1 0,2.4 L0,13 L90,13 Z" id="Shape"></path>
            </g>
        </g>
    </g>
</svg>