<?xml version="1.0" encoding="UTF-8"?>
<svg width="108px" height="135px" viewBox="0 0 108 135" version="1.1" xmlns="http://www.w3.org/2000/svg" xmlns:xlink="http://www.w3.org/1999/xlink">
    <!-- Generator: Sketch 41 (35326) - http://www.bohemiancoding.com/sketch -->
    <title>rubyonrails</title>
    <desc>Created with Sketch.</desc>
    <defs></defs>
    <g id="Page-1" stroke="none" stroke-width="1" fill="none" fill-rule="evenodd">
        <g id="rubyonrails" transform="translate(-1.000000, 0.000000)" fill="#011627">
            <g id="Page-1">
                <g id="rubyonrails">
                    <g id="layer7" transform="translate(6.726870, 111.045450)">
                        <path d="M0.594,0.5 L0.594,23.656 L6.5,23.656 L6.5,17.625 L11.875,23 L20.937,23 L13.749,15.812 C13.749,15.812 18.92,15.728 19.311,8.25 C19.311,1.389 14.134,0.5 8.155,0.5 L0.594,0.5 Z M6.781,6.781 L11.875,6.781 L11.875,10.906 L6.781,10.906 L6.781,6.781 Z" id="path3993"></path>
                        <path d="M32.344,0.594 C29.11,0.575 24.625,0.875 24.625,6.969 L24.625,23.063 L30.687,23.063 L30.687,19.125 L36.562,19.125 L36.562,22.969 L42.656,22.969 L42.656,6.094 C42.656,0.801 36.775,0.594 33.625,0.594 C33.231,0.594 32.806,0.597 32.344,0.594 Z M30.781,6.406 L36.469,6.406 L36.469,12.75 L30.781,12.75 L30.781,6.406 Z" id="path3997"></path>
                        <rect id="rect4001" x="48.73" y="0.609" width="6.272" height="22.152"></rect>
                        <polygon id="path4003" points="61.571 0.903 61.571 23.055 76.665 23.055 76.665 17.174 67.746 17.174 67.746 0.805"></polygon>
                        <path d="M96.661,0.707 L96.661,6.686 L86.565,6.686 L86.565,8.842 L90.877,8.842 C93.13,8.842 97.836,8.744 97.836,15.802 C97.836,22.859 94.602,23.251 88.035,23.251 L80.096,23.251 L80.096,17.859 L89.211,17.859 C91.955,17.859 92.107,16.965 92.107,16.187 C92.107,15.409 90.704,15.046 87.85,15.046 C84.996,15.046 79.704,13.644 79.704,8.155 C79.704,2.666 82.448,0.607 87.937,0.607 C93.426,0.607 96.661,0.707 96.661,0.707 L96.661,0.707 Z" id="path4005"></path>
                    </g>
                    <g id="layer6" transform="translate(0.726870, 0.045450)">
                        <path d="M12.092,104.944 L64.238,104.944 C64.238,104.944 52.672,78.675 55.612,54.563 C58.553,30.451 77.568,19.472 88.35,18.296 C99.131,17.119 105.013,23.785 105.013,23.785 L107.366,20.256 C107.366,20.256 91.879,4.573 72.275,6.338 C52.671,8.102 39.145,21.04 30.716,36.723 C22.286,52.407 17.385,63.384 14.053,79.851 C10.721,96.318 12.092,104.944 12.092,104.944 Z" id="path3966"></path>
                        <polygon id="path3968" points="1.703 78.675 11.897 79.459 10.132 89.652 0.527 88.476"></polygon>
                        <polygon id="path3970" points="17.778 57.111 20.523 49.466 11.505 45.937 8.565 54.17"></polygon>
                        <polygon id="path3972" points="30.52 30.842 35.813 24.57 28.952 20.061 23.463 26.137"></polygon>
                        <polygon id="path3974" points="44.438 6.534 49.143 12.219 55.612 8.494 50.907 3.201"></polygon>
                        <polygon id="path3976" points="67.375 0.065 68.551 5.751 76.589 5.555 75.804 0.458"></polygon>
                        <polygon id="path3978" points="94.624 6.142 94.428 9.67 99.917 12.61 101.093 10.846"></polygon>
                        <polygon id="path3980" points="93.447 21.237 93.447 24.177 98.74 24.765 98.74 22.412"></polygon>
                        <polygon id="path3982" points="76.589 23.785 79.137 28.489 82.862 25.549 82.078 22.412"></polygon>
                        <polygon id="path3984" points="68.55 29.863 72.471 35.744 70.118 39.86 64.433 33.588"></polygon>
                        <polygon id="path3986" points="60.71 46.133 58.161 51.23 64.826 56.916 66.394 50.446"></polygon>
                        <polygon id="path3988" points="57.965 63.972 57.573 70.833 65.806 74.362 65.414 67.892"></polygon>
                        <polygon id="path3990" points="60.317 88.281 62.278 95.339 72.667 95.927 68.942 88.281"></polygon>
                    </g>
                </g>
            </g>
        </g>
    </g>
</svg>