<?xml version="1.0" encoding="UTF-8"?>
<svg width="91px" height="90px" viewBox="0 0 91 90" version="1.1" xmlns="http://www.w3.org/2000/svg" xmlns:xlink="http://www.w3.org/1999/xlink">
    <!-- Generator: Sketch 41 (35326) - http://www.bohemiancoding.com/sketch -->
    <title>swift-n</title>
    <desc>Created with Sketch.</desc>
    <defs></defs>
    <g id="Page-1" stroke="none" stroke-width="1" fill="none" fill-rule="evenodd">
        <g id="swift-n" fill="#FF5331">
            <g id="Group">
                <path d="M90,13 L90,2.4 C90,1.1 88.9,0 87.6,0 L47.4,0 L42.5,0 L2.4,0 C1.1,0 0,1.1 0,2.4 L0,13 L90,13 Z" id="Shape"></path>
                <path d="M47,77.3 L90,64.8 L90,17 L0,17 L0,64.8 L43,77.3 C44,77.6 46,77.6 47,77.3 Z M55,38.2 L56,38.2 L56,37.3 C56,34.4 57.4,32 60.8,32 C61.8,32 62.8,32.3 63.4,32.5 L62.8,35.5 C62.4,35.3 61.9,35.2 61.5,35.2 C60.6,35.2 60,35.8 60,37.2 L60,38 L64.2,38 L64.6,34 L67,34 L67,38 L70,38 L70,41 L67,41 L67,46.6 C67,48.1 68,48.8 69,48.8 C69.4,48.8 70,48.7 70.4,48.5 L71.1,51.5 C70.4,51.7 69.6,52 68.4,52 C65.3,52 64.1,49.9 64.1,46.7 L64.1,41 L60.1,41 L60.1,52 L56.1,52 L56.1,41 L55.1,41 L55.1,38.2 L55,38.2 Z M53,52 L49,52 L49,38 L53,38 L53,52 Z M51,32 C52.2,32 53,32.8 53,34 C53,35.2 52.2,36 51,36 C49.8,36 49,35.2 49,34 C49,32.8 49.8,32 51,32 Z M23.7,51.8 C22.1,51.8 20.3,51.1 19,50 L20.6,47.5 C21.7,48.4 22.7,48.9 23.8,48.9 C24.9,48.9 25.4,48.5 25.4,47.8 C25.4,46.9 24.2,46.5 22.9,46 C21.4,45.4 19.7,44.3 19.7,42.1 C19.7,39.6 21.5,38 24.4,38 C26.3,38 27.7,38.8 28.7,39.7 L27,42 C26.1,41.3 25.3,40.9 24.4,40.9 C23.5,40.9 23,41.3 23,41.9 C23,42.8 24.1,43.1 25.4,43.6 C27,44.2 28.7,45.1 28.7,47.6 C28.7,50 27,51.8 23.7,51.8 Z M39.4,45.8 C39.1,44.5 38.9,43 38.7,42 L38.6,42 C38.4,43 38.2,44.5 38,45.8 L36.8,52 L32.5,52 L29.3,38 L33,38 L34.2,44.2 C34.4,45.6 34.6,47 34.8,48 L35,48 C35.2,47 35.4,45.5 35.7,44.2 L37.1,38 L40.4,38 L41.8,44.2 C42.1,45.6 42.3,47 42.6,48 L42.7,48 C42.9,47 43.1,45.5 43.3,44.2 L44.5,38 L48,38 L45,52 L40.6,52 L39.4,45.8 Z" id="Shape"></path>
                <path d="M48.1,81.2 C47.2,81.5 46.1,81.6 45,81.6 C43.9,81.6 42.8,81.5 41.9,81.2 L0,69 L0,75.6 C0,76.9 1.1,78.3 2.4,78.7 L42.7,89.4 C44,89.7 46.1,89.7 47.4,89.4 L87.7,78.7 C89,78.4 90.1,77 90.1,75.6 L90.1,69 L48.1,81.2 Z" id="Shape"></path>
            </g>
        </g>
    </g>
</svg>