<?xml version="1.0" encoding="UTF-8"?>
<svg width="224px" height="203px" viewBox="0 0 224 203" version="1.1" xmlns="http://www.w3.org/2000/svg" xmlns:xlink="http://www.w3.org/1999/xlink">
    <!-- Generator: Sketch 41 (35326) - http://www.bohemiancoding.com/sketch -->
    <title>swift</title>
    <desc>Created with Sketch.</desc>
    <defs></defs>
    <g id="Page-1" stroke="none" stroke-width="1" fill="none" fill-rule="evenodd">
        <g id="swift" fill="#011627">
            <path d="M206.5623,145.8456 C222.9063,99.908 197.4571,38.8396 142.6915,0 C166.5115,36.2284 174.3711,76.1327 157.7655,107.6932 C120.6367,83.6192 47.6287,19.8788 47.6287,19.8788 C47.6287,19.8788 81.8591,71.9724 107.9063,97.2752 C81.8591,81.6464 67.7187,70.4844 22.3243,32.5312 C53.4179,83.5664 106.5547,129.8496 125.7655,145.8456 C67.7187,176.9044 0,132.252 0,132.252 C11.6327,149.9432 28.0547,163.1972 47.6287,176.9044 C101.2967,214.4824 154.7891,205.3692 175.6287,186.0216 C175.6287,186.0216 182,178.8807 195.7187,182.8847 C205.2655,185.67 217.9255,195.7676 222.5,200.4864 C223.4803,196.2556 224,191.8496 224,187.3224 C224,171.0724 217.3243,156.3807 206.5623,145.8456 Z" id="Shape"></path>
        </g>
    </g>
</svg>