<?xml version="1.0" encoding="UTF-8"?>
<svg width="58px" height="58px" viewBox="0 0 58 58" version="1.1" xmlns="http://www.w3.org/2000/svg" xmlns:xlink="http://www.w3.org/1999/xlink">
    <!-- Generator: Sketch 41 (35326) - http://www.bohemiancoding.com/sketch -->
    <title>user</title>
    <desc>Created with Sketch.</desc>
    <defs></defs>
    <g id="Page-1" stroke="none" stroke-width="1" fill="none" fill-rule="evenodd">
        <g id="user">
            <circle id="Oval" fill="#89DAC1" cx="29" cy="29" r="29"></circle>
            <path d="M52.932,45.376 C52.275,38.985 46.876,34 40.311,34 L34.365,34 C33.611,34 33,33.389 33,32.635 L33,31.99 C33,31.407 33.379,30.908 33.925,30.703 C39.729,28.521 43.703,18.999 42.896,12.27 C42.134,5.919 36.97,0.801 30.614,0.09 C30.097,0.032 29.585,0.004 29.079,0.002 C29.063,0.002 29.047,0.001 29.031,0.001 C21.285,-0.016 15,6.258 15,14 C15,20.024 18.807,28.755 24.145,30.729 C24.668,30.922 25,31.442 25,32 L25,32.635 C25,33.389 24.389,34 23.635,34 L17.689,34 C11.124,34 5.725,38.985 5.068,45.376 C10.293,52.998 19.061,58 29,58 C38.939,58 47.707,52.998 52.932,45.376 Z" id="Shape" fill="#FBCE9D"></path>
            <path d="M33.492,6.61 C37.207,7.631 40.705,9.916 42.945,12.932 C42.929,12.711 42.922,12.485 42.896,12.269 C42.134,5.919 36.97,0.801 30.614,0.09 C30.097,0.032 29.585,0.004 29.079,0.002 C29.063,0.002 29.047,0.001 29.031,0.001 C22.111,-0.014 16.371,4.996 15.223,11.584 L15.228,11.584 C15.407,11.836 15.582,12.091 15.773,12.334 C15.843,12.247 15.914,12.161 15.986,12.076 C17.986,9.696 21.327,9.145 24.169,10.405 C25.034,10.787 25.992,11 27,11 C29.942,11 32.456,9.182 33.492,6.61 Z" id="Shape" fill="#6B5B4B"></path>
            <path d="M52.932,45.376 C52.275,38.985 46.876,34 40.311,34 L37,34 L29,42 L21,34 L17.689,34 C11.124,34 5.725,38.985 5.068,45.376 C10.293,52.998 19.061,58 29,58 C38.939,58 47.707,52.998 52.932,45.376 Z" id="Shape" fill="#556080"></path>
            <path d="M43,54.392 C43.685,54.013 44.35,53.603 45,53.172 L45,47 L43,47 L43,54.392 Z" id="Shape" fill="#424A60"></path>
            <path d="M15,54.392 L15,47 L13,47 L13,53.172 C13.65,53.603 14.315,54.013 15,54.392 Z" id="Shape" fill="#424A60"></path>
        </g>
    </g>
</svg>