<?xml version="1.0" encoding="UTF-8"?>
<svg width="192px" height="210px" viewBox="0 0 192 210" version="1.1" xmlns="http://www.w3.org/2000/svg" xmlns:xlink="http://www.w3.org/1999/xlink">
    <!-- Generator: Sketch 41 (35326) - http://www.bohemiancoding.com/sketch -->
    <title>video-tutorial</title>
    <desc>Created with Sketch.</desc>
    <defs></defs>
    <g id="Page-1" stroke="none" stroke-width="1" fill="none" fill-rule="evenodd">
        <g id="video-tutorial" fill="#5879DA">
            <path d="M173.101,185.02 C173.101,187.782 170.862,190.02 168.101,190.02 L62.131,190.02 C60.384,193.091 57.087,195.171 53.308,195.171 C49.529,195.171 46.232,193.091 44.485,190.02 L23.717,190.02 C20.956,190.02 18.717,187.782 18.717,185.02 C18.717,182.258 20.956,180.02 23.717,180.02 L44.485,180.02 C46.232,176.949 49.529,174.87 53.308,174.87 C57.087,174.87 60.383,176.95 62.131,180.02 L168.101,180.02 C170.862,180.02 173.101,182.258 173.101,185.02 Z M191.22,40.09 C191.22,40.142 191.206,40.191 191.205,40.242 C191.207,40.294 191.22,40.342 191.22,40.394 L191.22,165.221 L191.22,204.818 C191.22,207.58 188.981,209.818 186.22,209.818 L5.598,209.818 C2.837,209.818 0.598,207.58 0.598,204.818 L0.598,165.221 L0.598,40.395 C0.598,40.343 0.612,40.294 0.613,40.243 C0.611,40.191 0.598,40.143 0.598,40.091 L0.598,18.216 C0.598,8.172 8.77,0 18.814,0 L173.004,0 C183.048,0 191.22,8.172 191.22,18.216 L191.22,40.09 Z M181.22,170.222 L10.598,170.222 L10.598,199.819 L181.22,199.819 L181.22,170.222 Z M77.121,127.146 C77.894,127.592 78.758,127.816 79.621,127.816 C80.484,127.816 81.348,127.592 82.121,127.146 L120.697,104.875 C122.244,103.981 123.197,102.331 123.197,100.545 C123.197,98.759 122.244,97.108 120.697,96.215 L82.121,73.941 C80.574,73.048 78.668,73.048 77.121,73.941 C75.574,74.835 74.621,76.485 74.621,78.271 L74.621,122.815 C74.621,124.602 75.574,126.252 77.121,127.146 Z M181.22,18.216 C181.22,13.686 177.534,10 173.004,10 L18.814,10 C14.284,10 10.598,13.686 10.598,18.216 L10.598,35.09 L181.22,35.09 L181.22,18.216 Z M25.044,16.257 C21.183,16.257 18.041,19.399 18.041,23.261 C18.041,27.122 21.183,30.264 25.044,30.264 C28.906,30.264 32.047,27.122 32.047,23.261 C32.047,19.398 28.906,16.257 25.044,16.257 Z M49.925,16.257 C46.064,16.257 42.922,19.399 42.922,23.261 C42.922,27.122 46.064,30.264 49.925,30.264 C53.787,30.264 56.928,27.122 56.928,23.261 C56.929,19.398 53.787,16.257 49.925,16.257 Z M74.807,16.257 C70.945,16.257 67.804,19.399 67.804,23.261 C67.804,27.122 70.946,30.264 74.807,30.264 C78.668,30.264 81.81,27.122 81.81,23.261 C81.81,19.398 78.668,16.257 74.807,16.257 Z" id="Shape"></path>
        </g>
    </g>
</svg>