<?xml version="1.0" encoding="UTF-8"?>
<svg width="512px" height="384px" viewBox="0 0 512 384" version="1.1" xmlns="http://www.w3.org/2000/svg" xmlns:xlink="http://www.w3.org/1999/xlink">
    <!-- Generator: Sketch 44.1 (41455) - http://www.bohemiancoding.com/sketch -->
    <title>031-laptop-1</title>
    <desc>Created with Sketch.</desc>
    <defs></defs>
    <g id="Page-1" stroke="none" stroke-width="1" fill="none" fill-rule="evenodd">
        <g id="031-laptop-1" fill-rule="nonzero" fill="#FFFFFF">
            <circle id="Oval" cx="145.46" cy="178" r="10"></circle>
            <circle id="Oval" cx="202.57" cy="211.33" r="10"></circle>
            <circle id="Oval" cx="259.46" cy="149.34" r="10"></circle>
            <circle id="Oval" cx="315.22" cy="174.01" r="10"></circle>
            <circle id="Oval" cx="370.34" cy="103.39" r="10"></circle>
            <path d="M502,300.718 L299.485,300.718 C293.963,300.718 289.485,305.195 289.485,310.718 C289.485,320.021 281.917,327.589 272.614,327.589 L239.122,327.589 C229.819,327.589 222.251,320.021 222.251,310.718 C222.251,305.195 217.773,300.718 212.251,300.718 L54.836,300.718 L54.836,41.67 C54.836,30.047 64.292,20.592 75.914,20.592 L436.086,20.592 C447.708,20.592 457.164,30.048 457.164,41.67 L457.164,234.193 C457.164,239.716 461.642,244.193 467.164,244.193 C472.686,244.193 477.164,239.716 477.164,234.193 L477.164,41.67 C477.164,19.02 458.736,0.592 436.086,0.592 L75.914,0.592 C53.264,0.592 34.836,19.02 34.836,41.67 L34.836,300.718 L10,300.718 C4.478,300.718 0,305.195 0,310.718 L0,326.43 C0,357.848 25.561,383.408 56.979,383.408 L455.022,383.408 C486.44,383.408 512.001,357.848 512.001,326.43 L512.001,310.718 C512,305.195 507.522,300.718 502,300.718 Z M492,326.43 C492,346.82 475.411,363.408 455.021,363.408 L56.979,363.408 C36.589,363.408 20,346.82 20,326.43 L20,320.718 L203.629,320.718 C207.998,336.205 222.256,347.589 239.122,347.589 L272.614,347.589 C289.48,347.589 303.738,336.205 308.107,320.718 L492,320.718 L492,326.43 Z" id="Shape"></path>
            <path d="M426.17,43.246 L89.212,43.246 C83.69,43.246 79.212,47.723 79.212,53.246 L79.212,268.659 C79.212,274.182 83.69,278.659 89.212,278.659 L426.17,278.659 C431.692,278.659 436.17,274.182 436.17,268.659 L436.17,53.246 C436.17,47.723 431.692,43.246 426.17,43.246 Z M416.17,258.659 L380.342,258.659 L380.342,138.814 C380.342,133.291 375.864,128.814 370.342,128.814 C364.82,128.814 360.342,133.291 360.342,138.814 L360.342,258.659 L324.122,258.659 L324.122,214.163 C324.122,208.64 319.644,204.163 314.122,204.163 C308.6,204.163 304.122,208.64 304.122,214.163 L304.122,258.659 L267.902,258.659 L267.902,191.061 C267.902,185.538 263.424,181.061 257.902,181.061 C252.38,181.061 247.902,185.538 247.902,191.061 L247.902,258.659 L211.683,258.659 L211.683,249.006 C211.683,243.483 207.205,239.006 201.683,239.006 C196.161,239.006 191.683,243.483 191.683,249.006 L191.683,258.659 L155.463,258.659 L155.463,219.005 C155.463,213.482 150.985,209.005 145.463,209.005 C139.941,209.005 135.463,213.482 135.463,219.005 L135.463,258.659 L99.212,258.659 L99.212,63.246 L416.17,63.246 L416.17,258.659 Z" id="Shape"></path>
            <circle id="Oval" cx="465.99" cy="273.27" r="10"></circle>
        </g>
    </g>
</svg>